<svg width="55" height="55" viewBox="0 0 55 55" fill="none" xmlns="http://www.w3.org/2000/svg">
<path d="M28.8096 17.0239V30.119L40.019 36.7715L41.9047 33.5893L32.7381 28.1547V17.0239H28.8096Z" fill="#FFBBC0"/>
<path d="M31.4154 3.92859C18.3857 3.92859 7.85714 14.4833 7.85714 27.5H0L10.2011 37.7012L10.3844 38.0809L20.9524 27.5H13.0953C13.0953 17.3774 21.306 9.16672 31.4286 9.16672C41.5512 9.16672 49.7619 17.3774 49.7619 27.5C49.7619 37.6226 41.5512 45.8333 31.4286 45.8333C26.3607 45.8333 21.7904 43.7643 18.4774 40.4512L14.7714 44.1572C19.0274 48.4262 24.9071 51.0714 31.4154 51.0714C44.4453 51.0714 55 40.5167 55 27.5C55 14.4833 44.4453 3.92859 31.4154 3.92859Z" fill="#FFBBC0"/>
</svg>
