<svg width="31" height="42" viewBox="0 0 31 42" fill="none" xmlns="http://www.w3.org/2000/svg">
<path d="M28.8941 26.7106C30.0606 24.5265 30.8345 21.7639 30.9846 19.0304C31.0799 17.276 30.7305 15.4343 29.974 13.7024C28.7872 10.9819 26.7487 9.45358 24.7794 7.97699C23.3097 6.8752 21.9208 5.8348 20.939 4.34852L20.7629 4.08357C20.1825 3.21119 19.527 2.22248 19.4231 1.3921C19.3191 0.552027 18.6377 -0.0457179 17.8927 0.00274788C17.1362 0.0609069 16.55 0.762046 16.55 1.61181V30.4005C15.3401 29.5798 10.6314 28.6719 9 28.6719C5.02102 28.6719 0.5 31.974 0.5 35.5379C0.5 39.1017 5.52102 42 9.5 42C13.479 42 19.4375 39.1017 19.4375 35.5379V16.7073C21.606 17.6346 25.1548 19.9965 26.1307 25.5119C25.9488 25.8124 25.7756 26.1355 25.5735 26.394C25.045 27.0628 25.1028 28.0838 25.7034 28.6719C26.2982 29.2664 27.2107 29.1953 27.7391 28.5265C28.126 28.0354 28.4696 27.4603 28.7988 26.8593C28.8335 26.814 28.8653 26.7656 28.8941 26.7106Z" fill="#FF485A"/>
<line x1="1" y1="15" x2="15" y2="15" stroke="#FF485A" stroke-width="2"/>
<path d="M1 20H15" stroke="#FF485A" stroke-width="2"/>
<path d="M1 25H15" stroke="#FF485A" stroke-width="2"/>
</svg>
