<svg width="32" height="43" viewBox="0 0 32 43" fill="none" xmlns="http://www.w3.org/2000/svg">
<path d="M29.4081 27.3466C30.8439 25.1104 31.7963 22.2821 31.9811 19.4835C32.0984 17.6873 31.6684 15.8017 30.7372 14.0287C29.2766 11.2433 26.7676 9.67867 24.3439 8.16692C22.535 7.0389 20.8256 5.97373 19.6173 4.45205L19.4005 4.1808C18.6861 3.28764 17.8794 2.2754 17.7515 1.42525C17.6235 0.565171 16.7848 -0.0468065 15.8679 0.00281331C14.9368 0.062357 14.2154 0.78019 14.2154 1.65019V31.1243C12.7263 30.2841 10.8925 29.7681 8.88462 29.7681C3.98742 29.7681 0 32.7353 0 36.384C0 40.0327 3.98742 43 8.88462 43C13.7818 43 17.7692 40.0327 17.7692 36.384V17.1051C20.4382 18.0545 24.8059 20.4726 26.0071 26.1194C25.7832 26.427 25.5699 26.7578 25.3212 27.0224C24.6708 27.7072 24.7419 28.7525 25.4811 29.3546C26.2132 29.9632 27.3362 29.8905 27.9866 29.2057C28.4628 28.7029 28.8857 28.1141 29.2908 27.4988C29.3335 27.4525 29.3727 27.4029 29.4081 27.3466Z" fill="#FF485A"/>
</svg>
