<svg width="55" height="55" viewBox="0 0 55 55" fill="none" xmlns="http://www.w3.org/2000/svg">
<path d="M32.428 19.1817C34.1029 17.1275 36.0662 16.0417 38.1058 16.0417H45.2871L42.5572 19.3401C42.2931 19.6593 42.0835 20.0383 41.9405 20.4553C41.7976 20.8724 41.724 21.3194 41.724 21.7709C41.724 22.2223 41.7976 22.6693 41.9405 23.0864C42.0835 23.5034 42.2931 23.8824 42.5572 24.2016C43.0907 24.8463 43.8144 25.2084 44.5689 25.2084C44.9425 25.2084 45.3124 25.1195 45.6576 24.9468C46.0027 24.774 46.3163 24.5208 46.5805 24.2016L54.1667 15.0349C54.4309 14.7157 54.6405 14.3368 54.7834 13.9197C54.9264 13.5027 55 13.0556 55 12.6042C55 12.1528 54.9264 11.7058 54.7834 11.2887C54.6405 10.8716 54.4309 10.4927 54.1667 10.1735L46.5805 1.00684C46.3163 0.687634 46.0027 0.434424 45.6576 0.26167C45.3124 0.0889151 44.9425 0 44.5689 0C44.1953 0 43.8253 0.0889151 43.4802 0.26167C43.135 0.434424 42.8214 0.687634 42.5572 1.00684C42.2931 1.32605 42.0835 1.70501 41.9405 2.12207C41.7976 2.53914 41.724 2.98615 41.724 3.43758C41.724 3.88901 41.7976 4.33602 41.9405 4.75308C42.0835 5.17015 42.2931 5.5491 42.5572 5.86831L45.2871 9.16673H38.1058C33.8475 9.16673 29.9438 11.7547 27.1349 16.0529C28.3991 18.3277 29.3695 20.8218 30.0129 23.4493C30.6146 21.8735 31.431 20.4309 32.428 19.1817V19.1817Z" fill="#FFBBC0"/>
<path d="M19.4932 35.8184C17.8182 37.8725 15.8548 38.9584 13.8153 38.9584H2.84482C2.09033 38.9584 1.36674 39.3205 0.833229 39.9652C0.299722 40.6098 0 41.4842 0 42.3959C0 43.3075 0.299722 44.1819 0.833229 44.8265C1.36674 45.4712 2.09033 45.8333 2.84482 45.8333H13.8153C18.0735 45.8333 21.9773 43.2453 24.7862 38.9472C23.5219 36.6724 22.5513 34.1783 21.9079 31.5507C21.3062 33.1265 20.49 34.5691 19.4932 35.8184V35.8184Z" fill="#FFBBC0"/>
<path d="M46.5805 30.7984C46.3164 30.4792 46.0027 30.226 45.6576 30.0532C45.3124 29.8805 44.9425 29.7915 44.5689 29.7915C44.1953 29.7915 43.8253 29.8805 43.4802 30.0532C43.135 30.226 42.8214 30.4792 42.5572 30.7984C42.2931 31.1176 42.0835 31.4965 41.9405 31.9136C41.7976 32.3307 41.724 32.7777 41.724 33.2291C41.724 33.6805 41.7976 34.1275 41.9405 34.5446C42.0835 34.9617 42.2931 35.3406 42.5572 35.6598L45.2871 38.9583H38.1058C36.0662 38.9583 34.1029 37.8724 32.428 35.8183C30.6278 33.6104 29.3231 30.4258 28.7542 26.8509C27.0969 16.4386 20.9539 9.16669 13.8153 9.16669H2.84482C2.09033 9.16669 1.36674 9.52885 0.833229 10.1735C0.299722 10.8182 0 11.6925 0 12.6042C0 13.5159 0.299722 14.3902 0.833229 15.0348C1.36674 15.6795 2.09033 16.0417 2.84482 16.0417H13.8153C15.8548 16.0417 17.8182 17.1275 19.4931 19.1817C21.2931 21.3894 22.5978 24.5741 23.1668 28.1491C24.824 38.5612 30.9671 45.8332 38.1058 45.8332H45.2871L42.5572 49.1317C42.0237 49.7763 41.724 50.6507 41.724 51.5624C41.724 52.4741 42.0237 53.3485 42.5572 53.9931C43.0908 54.6378 43.8144 55 44.5689 55C45.3234 55 46.047 54.6378 46.5805 53.9931L54.1667 44.8265C54.4309 44.5073 54.6405 44.1283 54.7834 43.7113C54.9264 43.2942 55 42.8472 55 42.3958C55 41.9443 54.9264 41.4973 54.7834 41.0802C54.6405 40.6632 54.4309 40.2842 54.1667 39.965L46.5805 30.7984Z" fill="#FFBBC0"/>
</svg>
